<svg width="74" height="50" viewBox="0 0 74 50" fill="none" xmlns="http://www.w3.org/2000/svg">
<g filter="url(#filter0_d_59_11)">
<path d="M24.7287 25.6802V21.1312H35.1005V30.453C33.115 31.8152 31.3568 32.7449 29.8257 33.242C28.3045 33.7292 26.4969 33.9729 24.4028 33.9729C21.8246 33.9729 19.7206 33.5304 18.0908 32.6454C16.4708 31.7605 15.2114 30.443 14.3125 28.693C13.4235 26.943 12.979 24.9345 12.979 22.6675C12.979 20.2811 13.468 18.2079 14.4459 16.448C15.4238 14.6781 16.8561 13.3358 18.7427 12.421C20.2145 11.715 22.1951 11.3621 24.6843 11.3621C27.0846 11.3621 28.8774 11.5808 30.0628 12.0183C31.258 12.4558 32.2458 13.1369 33.0261 14.0616C33.8164 14.9764 34.409 16.1398 34.8042 17.5517L28.3292 18.715C28.0625 17.8898 27.6081 17.2584 26.9661 16.8209C26.3339 16.3834 25.5239 16.1646 24.5361 16.1646C23.0643 16.1646 21.8888 16.6817 21.0097 17.7158C20.1405 18.7399 19.7058 20.3656 19.7058 22.5929C19.7058 24.9594 20.1454 26.6497 21.0245 27.6639C21.9135 28.6781 23.1483 29.1852 24.7287 29.1852C25.4794 29.1852 26.1956 29.0758 26.8772 28.8571C27.5587 28.6383 28.3391 28.2655 29.2182 27.7385V25.6802H24.7287Z" fill="white"/>
<path d="M38.2417 22.6824C38.2417 19.1128 39.2294 16.3337 41.205 14.345C43.1806 12.3564 45.9316 11.3621 49.458 11.3621C53.0733 11.3621 55.8588 12.3415 57.8147 14.3003C59.7705 16.2491 60.7484 18.9835 60.7484 22.5034C60.7484 25.0588 60.3187 27.1568 59.4593 28.7974C58.6098 30.4281 57.3751 31.7008 55.7551 32.6156C54.145 33.5204 52.1349 33.9729 49.7247 33.9729C47.275 33.9729 45.2451 33.5801 43.635 32.7946C42.0348 32.0091 40.7358 30.7662 39.7382 29.0659C38.7405 27.3656 38.2417 25.2378 38.2417 22.6824ZM44.9537 22.7122C44.9537 24.9196 45.3587 26.5055 46.1686 27.47C46.9885 28.4345 48.0998 28.9167 49.5024 28.9167C50.9446 28.9167 52.0608 28.4444 52.851 27.4998C53.6413 26.5552 54.0364 24.8599 54.0364 22.4139C54.0364 20.3557 53.6215 18.8542 52.7918 17.9096C51.9719 16.9551 50.8557 16.4778 49.4432 16.4778C48.0899 16.4778 47.0033 16.9601 46.1835 17.9246C45.3636 18.889 44.9537 20.4849 44.9537 22.7122Z" fill="white"/>
<path d="M4 17.5637H4.75862V42.0001H4V17.5637Z" fill="#CD06FF"/>
<path d="M4 42.0001V41.2364H42.6896V42.0001H4Z" fill="#CD06FF"/>
<path d="M70 24.4363H69.2414V-8.39233e-05H70V24.4363Z" fill="#CD06FF"/>
<path d="M70 -8.39233e-05V0.763552H31.3104V-8.39233e-05H70Z" fill="#CD06FF"/>
</g>
<defs>
<filter id="filter0_d_59_11" x="0" y="0" width="74" height="50" filterUnits="userSpaceOnUse" color-interpolation-filters="sRGB">
<feFlood flood-opacity="0" result="BackgroundImageFix"/>
<feColorMatrix in="SourceAlpha" type="matrix" values="0 0 0 0 0 0 0 0 0 0 0 0 0 0 0 0 0 0 127 0" result="hardAlpha"/>
<feOffset dy="4"/>
<feGaussianBlur stdDeviation="2"/>
<feComposite in2="hardAlpha" operator="out"/>
<feColorMatrix type="matrix" values="0 0 0 0 0 0 0 0 0 0 0 0 0 0 0 0 0 0 0.25 0"/>
<feBlend mode="normal" in2="BackgroundImageFix" result="effect1_dropShadow_59_11"/>
<feBlend mode="normal" in="SourceGraphic" in2="effect1_dropShadow_59_11" result="shape"/>
</filter>
</defs>
</svg>
