<svg width="36" height="50" viewBox="0 0 36 50" fill="none" xmlns="http://www.w3.org/2000/svg">
<path fill-rule="evenodd" clip-rule="evenodd" d="M44.7443 9.66919C48.1585 14.0494 50.0087 19.4463 50.0001 24.9999C50.0001 38.8051 38.8052 49.9999 25.0007 49.9999C15.2873 49.9999 6.86612 44.4576 2.72766 36.3647H13.6238C18.8161 36.3647 22.443 33.566 22.443 29.0923C22.443 19.6108 11.5052 23.4737 11.5052 20.1089C11.5052 18.4878 12.8059 17.898 15.186 17.898H22.7693C24.8712 17.898 27.3437 18.275 27.3437 20.5685V28.1243C27.3437 33.5955 31.6161 36.364 36.0443 36.364C40.5481 36.364 44.7437 33.5955 44.7437 28.1243V9.66919H44.7443Z" fill="white"/>
<path fill-rule="evenodd" clip-rule="evenodd" d="M25.0006 2.43241e-05C30.0174 -0.00698868 34.9192 1.50262 39.0628 4.33079V28.3013C39.0628 29.9628 37.7038 31.3224 36.0449 31.3224C34.384 31.3224 33.0263 29.9628 33.0263 28.3013V21.1186C33.0263 15.3846 30.1243 12.9994 26.3449 12.9994H14.0442C9.59103 12.9994 5.8968 15.834 5.8968 20.3289C5.8968 22.6289 6.88205 25.9994 11.5417 26.8353C15.3372 27.5186 16.8353 27.3199 16.8353 29.3506C16.8353 31.3224 14.6263 31.3224 11.7103 31.3224H0.808342C0.269828 29.2582 -0.00183001 27.1334 9.27722e-06 25C9.27722e-06 11.1981 11.1962 2.43241e-05 25.0006 2.43241e-05Z" fill="white"/>
</svg>
